# xmcd
# 
# Track frame offsets:
#     150
#     16265
#     36760
#     55925
#     75282
#     94832
#     114562
#     132935
#     153247
#     170195
#     192010
#     214957
#     237832
#     255625
#     275497
#     294232
#     317427
#     338967
# 
# Disc length: 4654
# 
# Revision: 52
# Processed by: cddbd v1.5.2PL0 Copyright (c) Steve Scherf et al.
# Submitted via: fre:ac v1.0.31
# 
DISCID=f5122c12
DTITLE=Whitney Houston - Greatest Hits CD 2 Throw Down
DYEAR=2000
DGENRE=Pop
TTITLE0=Fine
TTITLE1=If I Told You That Ft. George Michael
TTITLE2=It's Not Right But It's Okay (Thunderpuss Mix)
TTITLE3=My Love Is Your Love (Jonathan Peters Mix)
TTITLE4=Heartbreak Hotel Ft. Faith Evans and Kelly Price (Hex Hector Mix)
TTITLE5=I Learned From The Best (HQ² Mix)
TTITLE6=Step By Step (Junior Vasquez Mix)
TTITLE7=I'm Every Woman (Clivilles and Cole Mix)
TTITLE8=Queen Of The Night (CJ Mackintosh Mix)
TTITLE9=I Will Always Love You (Hex Hector Mix)
TTITLE10=Love Will Save The Day (Jellybean and David Morales Mix)
TTITLE11=I'm Your Baby Tonight (Dronez Mix)
TTITLE12=So Emotional (David Morales Mix)
TTITLE13=I Wanna Dance With Somebody (Who Loves Me) (Junior Vasquez Mix)
TTITLE14=How Will I Know (Junior Vasquez Mix)
TTITLE15=Greatest Love Of All (Junior Vasquez Mix)
TTITLE16=One Moment In Time
TTITLE17=The Star Spangled Banner (Performed Live 1/27/91 At Super Bowl XXV)
EXTD=YEAR: 2000
EXTT0=
EXTT1=
EXTT2=(Thunderpuss Mix)
EXTT3=(Jonathan Peters Mix)
EXTT4=(Hex Nector Mix)
EXTT5=(HQï¿½ Mix)
EXTT6=(Junour Vasquez Mix)
EXTT7=(Clivilles and Cole Mix)
EXTT8=(CJ Mackintosh Mix)
EXTT9=(Hex Hector Mix)
EXTT10=(Jellybean and David Morales Mix)
EXTT11=(Dronez Mix)
EXTT12=(David Morales Mix)
EXTT13=(Junior Vasquez Mix)
EXTT14=(Junior Vasquez Mix)
EXTT15=(Junior Vasquez Mix)
EXTT16=Bonus Tracks
EXTT17=Bonus Tracks (Performed Live 1/27/91 At Super Bowl XXV)
PLAYORDER=
